<svg width="515" height="174" viewBox="0 0 515 174" fill="none" xmlns="http://www.w3.org/2000/svg">
<path d="M0 91L10.6575 30.52H30.8175L21.945 80.92H72.345L70.56 91H0ZM133.069 60.76L136.587 40.6H111.387L105.454 45.64L102.829 60.76H133.069ZM77.3145 91L85.2945 45.64L103.092 30.52H158.532L147.874 91H127.714L131.284 70.84H101.044L97.4745 91H77.3145ZM154.629 91L165.286 30.52H250.966L263.409 45.64L255.429 91H235.269L243.249 45.64L239.101 40.6H223.981L215.109 91H194.949L203.821 40.6H183.661L174.789 91H154.629ZM262.192 91L270.172 45.64L287.97 30.52H343.41L339.84 50.68H319.68L321.465 40.6H296.265L290.332 45.64L287.707 60.76H338.107L336.322 70.84H285.922L284.137 80.92H334.537L332.752 91H262.192ZM339.507 91L347.487 45.64L365.284 30.52H420.724L416.262 55.72L398.517 70.84H403.557L406.812 80.92H411.852L410.067 91H389.907L383.397 70.84H373.317L375.102 60.76H390.222L396.102 55.72L398.779 40.6H373.579L367.647 45.64L359.667 91H339.507ZM416.821 91L424.801 45.64L442.599 30.52H498.039L494.469 50.68H474.309L476.094 40.6H450.894L444.961 45.64L442.336 60.76H492.736L490.951 70.84H440.551L438.766 80.92H489.166L487.381 91H416.821Z" fill="white"/>
<path d="M249 159L252.8 137.4L261.275 130.2H287.675L285.975 139.8H276.375L277.225 135H265.225L262.4 137.4L259.45 154.2H283.45L282.6 159H249ZM285.816 159L286.666 154.2H308.266L311.091 151.8L311.516 149.4H294.716L288.766 142.2L290.891 130.2H300.491L298.366 142.2L300.366 144.6H312.366L314.891 130.2H324.491L320.691 151.8L312.216 159H285.816ZM322.633 159L326.433 137.4L334.908 130.2H361.308L359.608 139.8H350.008L350.858 135H338.858L336.033 137.4L333.083 154.2H357.083L356.233 159H322.633ZM359.449 159L364.524 130.2H374.124L369.899 154.2H393.899L393.049 159H359.449ZM396.266 159L400.066 137.4L408.541 130.2H434.941L433.241 139.8H423.641L424.491 135H412.491L409.666 137.4L408.416 144.6H432.416L431.566 149.4H407.566L406.716 154.2H430.716L429.866 159H396.266ZM433.082 159L433.932 154.2H455.532L458.357 151.8L458.782 149.4H434.782L436.882 137.4L445.357 130.2H471.757L470.057 139.8H460.457L461.307 135H449.307L446.482 137.4L445.232 144.6H469.232L467.957 151.8L459.482 159H433.082Z" fill="white"/>
</svg>
